<?xml version="1.0" encoding="UTF-8" standalone="no"?>
<!DOCTYPE svg PUBLIC "-//W3C//DTD SVG 1.1//EN"
 "http://www.w3.org/Graphics/SVG/1.1/DTD/svg11.dtd">
<!-- Generated by graphviz version 13.1.2 (20250808.2320)
 -->
<!-- Pages: 1 -->
<svg width="987pt" height="1149pt"
 viewBox="0.00 0.00 987.00 1149.00" xmlns="http://www.w3.org/2000/svg" xmlns:xlink="http://www.w3.org/1999/xlink">
<g id="graph0" class="graph" transform="scale(1 1) rotate(0) translate(4 1144.95)">
<text xml:space="preserve" text-anchor="middle" x="489.41" y="-1114.15" font-family="Helvetica,sans-Serif" font-size="24.00">Princess of Wales Hospital blood glucometer case</text>
<text xml:space="preserve" text-anchor="middle" x="489.41" y="-1089.4" font-family="Helvetica,sans-Serif" font-size="24.00">v3, 10 September 2025</text>
<text xml:space="preserve" text-anchor="middle" x="489.41" y="-1064.65" font-family="Helvetica,sans-Serif" font-size="24.00"> </text>
<g id="clust1" class="cluster">
<title>clusterxceedpro</title>
<g id="a_clust1"><a xlink:href="#xceedpro" xlink:title="v2&#45;4.1\nPolice handling of\nXceedPro evidence">
<path fill="none" stroke="red" d="M20,-605.75C20,-605.75 234,-605.75 234,-605.75 240,-605.75 246,-611.75 246,-617.75 246,-617.75 246,-1033.12 246,-1033.12 246,-1039.12 240,-1045.12 234,-1045.12 234,-1045.12 20,-1045.12 20,-1045.12 14,-1045.12 8,-1039.12 8,-1033.12 8,-1033.12 8,-617.75 8,-617.75 8,-611.75 14,-605.75 20,-605.75"/>
<text xml:space="preserve" text-anchor="middle" x="127" y="-661.2" font-family="Helvetica,sans-Serif" font-weight="bold" font-size="24.00">v2&#45;4.1</text>
<text xml:space="preserve" text-anchor="middle" x="127" y="-636.45" font-family="Helvetica,sans-Serif" font-weight="bold" font-size="24.00">Police handling of</text>
<text xml:space="preserve" text-anchor="middle" x="127" y="-611.7" font-family="Helvetica,sans-Serif" font-weight="bold" font-size="24.00">XceedPro evidence</text>
</a>
</g>
</g>
<g id="clust2" class="cluster">
<title>clusterhospital</title>
<g id="a_clust2"><a xlink:href="#hospital" xlink:title="v2&#45;9.1\nHospital IT Systems">
<path fill="none" stroke="red" d="M416,-8C416,-8 770,-8 770,-8 776,-8 782,-14 782,-20 782,-20 782,-900.31 782,-900.31 782,-906.31 776,-912.31 770,-912.31 770,-912.31 416,-912.31 416,-912.31 410,-912.31 404,-906.31 404,-900.31 404,-900.31 404,-20 404,-20 404,-14 410,-8 416,-8"/>
<text xml:space="preserve" text-anchor="middle" x="593" y="-38.7" font-family="Helvetica,sans-Serif" font-weight="bold" font-size="24.00">v2&#45;9.1</text>
<text xml:space="preserve" text-anchor="middle" x="593" y="-13.95" font-family="Helvetica,sans-Serif" font-weight="bold" font-size="24.00">Hospital IT Systems</text>
</a>
</g>
</g>
<!-- 18 -->
<g id="node1" class="node">
<title>18</title>
<g id="a_node1"><a xlink:href="#18" xlink:title="v2&#45;3.1\nPolice summary\nof wrong XceedPro\nevidence">
<polygon fill="red" stroke="black" stroke-width="2" points="149.38,-764 24.62,-764 24.62,-696 155.38,-696 155.38,-758 149.38,-764"/>
<polyline fill="none" stroke="black" stroke-width="2" points="149.38,-764 149.38,-758"/>
<polyline fill="none" stroke="black" stroke-width="2" points="155.38,-758 149.38,-758"/>
<text xml:space="preserve" text-anchor="middle" x="90" y="-746.7" font-family="Helvetica,sans-Serif" font-size="14.00" fill="white">v2&#45;3.1</text>
<text xml:space="preserve" text-anchor="middle" x="90" y="-731.7" font-family="Helvetica,sans-Serif" font-size="14.00" fill="white">Police summary</text>
<text xml:space="preserve" text-anchor="middle" x="90" y="-716.7" font-family="Helvetica,sans-Serif" font-size="14.00" fill="white">of wrong XceedPro</text>
<text xml:space="preserve" text-anchor="middle" x="90" y="-701.7" font-family="Helvetica,sans-Serif" font-size="14.00" fill="white">evidence</text>
</a>
</g>
</g>
<!-- 17 -->
<g id="node2" class="node">
<title>17</title>
<g id="a_node2"><a xlink:href="#17" xlink:title="v2&#45;2.1\nAbbott\nlabs">
<ellipse fill="none" stroke="black" cx="133" cy="-870.31" rx="38.89" ry="37.48"/>
<text xml:space="preserve" text-anchor="middle" x="133" y="-879.51" font-family="Helvetica,sans-Serif" font-size="14.00">v2&#45;2.1</text>
<text xml:space="preserve" text-anchor="middle" x="133" y="-864.51" font-family="Helvetica,sans-Serif" font-size="14.00">Abbott</text>
<text xml:space="preserve" text-anchor="middle" x="133" y="-849.51" font-family="Helvetica,sans-Serif" font-size="14.00">labs</text>
</a>
</g>
</g>
<!-- 17&#45;&gt;18 -->
<g id="edge17" class="edge">
<title>17&#45;&gt;18</title>
<path fill="none" stroke="black" d="M122.04,-834.05C116.51,-816.25 109.74,-794.48 103.85,-775.54"/>
<polygon fill="black" stroke="black" points="107.26,-774.72 100.95,-766.21 100.57,-776.8 107.26,-774.72"/>
</g>
<!-- 16 -->
<g id="node3" class="node">
<title>16</title>
<g id="a_node3"><a xlink:href="#16" xlink:title="v2&#45;1.1\nWrong XceedPros\nseized by police">
<polygon fill="red" stroke="black" stroke-width="2" points="136.75,-1037.12 17.25,-1037.12 17.25,-984.12 142.75,-984.12 142.75,-1031.12 136.75,-1037.12"/>
<polyline fill="none" stroke="black" stroke-width="2" points="136.75,-1037.12 136.75,-1031.12"/>
<polyline fill="none" stroke="black" stroke-width="2" points="142.75,-1031.12 136.75,-1031.12"/>
<text xml:space="preserve" text-anchor="middle" x="80" y="-1019.82" font-family="Helvetica,sans-Serif" font-size="14.00" fill="white">v2&#45;1.1</text>
<text xml:space="preserve" text-anchor="middle" x="80" y="-1004.82" font-family="Helvetica,sans-Serif" font-size="14.00" fill="white">Wrong XceedPros</text>
<text xml:space="preserve" text-anchor="middle" x="80" y="-989.82" font-family="Helvetica,sans-Serif" font-size="14.00" fill="white">seized by police</text>
</a>
</g>
</g>
<!-- 16&#45;&gt;18 -->
<g id="edge19" class="edge">
<title>16&#45;&gt;18</title>
<path fill="none" stroke="black" d="M80.57,-983.26C81.37,-948.7 82.93,-886.22 85,-832.83 85.72,-814.35 86.68,-793.99 87.57,-776.36"/>
<polygon fill="black" stroke="black" points="91.06,-776.61 88.08,-766.45 84.07,-776.26 91.06,-776.61"/>
</g>
<!-- 16&#45;&gt;17 -->
<g id="edge18" class="edge">
<title>16&#45;&gt;17</title>
<path fill="none" stroke="black" d="M90.09,-983.28C97.32,-964.42 107.23,-938.56 115.71,-916.44"/>
<polygon fill="black" stroke="black" points="118.88,-917.93 119.19,-907.34 112.35,-915.43 118.88,-917.93"/>
</g>
<!-- unknowndatabaselogs -->
<g id="node4" class="node">
<title>unknowndatabaselogs</title>
<g id="a_node4"><a xlink:href="#unknowndatabaselogs" xlink:title="v2&#45;8.3\nNo evidence\non any system\nreliability">
<polygon fill="blue" stroke="black" stroke-width="2" points="767.88,-141.5 670.12,-141.5 670.12,-73.5 773.88,-73.5 773.88,-135.5 767.88,-141.5"/>
<polyline fill="none" stroke="black" stroke-width="2" points="767.88,-141.5 767.88,-135.5"/>
<polyline fill="none" stroke="black" stroke-width="2" points="773.88,-135.5 767.88,-135.5"/>
<text xml:space="preserve" text-anchor="middle" x="722" y="-124.2" font-family="Helvetica,sans-Serif" font-size="14.00" fill="white">v2&#45;8.3</text>
<text xml:space="preserve" text-anchor="middle" x="722" y="-109.2" font-family="Helvetica,sans-Serif" font-size="14.00" fill="white">No evidence</text>
<text xml:space="preserve" text-anchor="middle" x="722" y="-94.2" font-family="Helvetica,sans-Serif" font-size="14.00" fill="white">on any system</text>
<text xml:space="preserve" text-anchor="middle" x="722" y="-79.2" font-family="Helvetica,sans-Serif" font-size="14.00" fill="white">reliability</text>
</a>
</g>
</g>
<!-- unknownEdits -->
<g id="node5" class="node">
<title>unknownEdits</title>
<g id="a_node5"><a xlink:href="#unknownEdits" xlink:title="v2&#45;3.3\nUnknown manual edits\nto PrecisionWeb database">
<polygon fill="blue" stroke="black" stroke-width="2" points="579.75,-756.5 412.25,-756.5 412.25,-703.5 585.75,-703.5 585.75,-750.5 579.75,-756.5"/>
<polyline fill="none" stroke="black" stroke-width="2" points="579.75,-756.5 579.75,-750.5"/>
<polyline fill="none" stroke="black" stroke-width="2" points="585.75,-750.5 579.75,-750.5"/>
<text xml:space="preserve" text-anchor="middle" x="499" y="-739.2" font-family="Helvetica,sans-Serif" font-size="14.00" fill="white">v2&#45;3.3</text>
<text xml:space="preserve" text-anchor="middle" x="499" y="-724.2" font-family="Helvetica,sans-Serif" font-size="14.00" fill="white">Unknown manual edits</text>
<text xml:space="preserve" text-anchor="middle" x="499" y="-709.2" font-family="Helvetica,sans-Serif" font-size="14.00" fill="white">to PrecisionWeb database</text>
</a>
</g>
</g>
<!-- 7 -->
<g id="node10" class="node">
<title>7</title>
<g id="a_node10"><a xlink:href="#7" xlink:title="v2&#45;5.2\nAbbott\nPrecisionWeb\ndatabase">
<polygon fill="blue" stroke="black" stroke-width="2" points="646.62,-561 553.38,-561 553.38,-493 652.62,-493 652.62,-555 646.62,-561"/>
<polyline fill="none" stroke="black" stroke-width="2" points="646.62,-561 646.62,-555"/>
<polyline fill="none" stroke="black" stroke-width="2" points="652.62,-555 646.62,-555"/>
<text xml:space="preserve" text-anchor="middle" x="603" y="-543.7" font-family="Helvetica,sans-Serif" font-size="14.00" fill="white">v2&#45;5.2</text>
<text xml:space="preserve" text-anchor="middle" x="603" y="-528.7" font-family="Helvetica,sans-Serif" font-size="14.00" fill="white">Abbott</text>
<text xml:space="preserve" text-anchor="middle" x="603" y="-513.7" font-family="Helvetica,sans-Serif" font-size="14.00" fill="white">PrecisionWeb</text>
<text xml:space="preserve" text-anchor="middle" x="603" y="-498.7" font-family="Helvetica,sans-Serif" font-size="14.00" fill="white">database</text>
</a>
</g>
</g>
<!-- unknownEdits&#45;&gt;7 -->
<g id="edge4" class="edge">
<title>unknownEdits&#45;&gt;7</title>
<path fill="none" stroke="blue" stroke-width="4" d="M512.6,-702.72C529.23,-670.57 557.72,-615.52 578.27,-575.79"/>
<polygon fill="blue" stroke="blue" stroke-width="4" points="581.32,-577.52 582.8,-567.03 575.1,-574.31 581.32,-577.52"/>
</g>
<!-- networks -->
<g id="node6" class="node">
<title>networks</title>
<g id="a_node6"><a xlink:href="#networks" xlink:title="v2&#45;2.3\nWard\nnetworks">
<polygon fill="white" stroke="black" stroke-width="2" points="534,-896.81 470,-896.81 470,-843.81 540,-843.81 540,-890.81 534,-896.81"/>
<polyline fill="none" stroke="black" stroke-width="2" points="534,-896.81 534,-890.81"/>
<polyline fill="none" stroke="black" stroke-width="2" points="540,-890.81 534,-890.81"/>
<text xml:space="preserve" text-anchor="middle" x="505" y="-879.51" font-family="Helvetica,sans-Serif" font-size="14.00">v2&#45;2.3</text>
<text xml:space="preserve" text-anchor="middle" x="505" y="-864.51" font-family="Helvetica,sans-Serif" font-size="14.00">Ward</text>
<text xml:space="preserve" text-anchor="middle" x="505" y="-849.51" font-family="Helvetica,sans-Serif" font-size="14.00">networks</text>
</a>
</g>
</g>
<!-- 5 -->
<g id="node13" class="node">
<title>5</title>
<g id="a_node13"><a xlink:href="#5" xlink:title="v2&#45;3.4\nXceedPro\ndock\non ward">
<polygon fill="white" stroke="black" stroke-width="2" points="672.62,-764 603.38,-764 603.38,-696 678.62,-696 678.62,-758 672.62,-764"/>
<polyline fill="none" stroke="black" stroke-width="2" points="672.62,-764 672.62,-758"/>
<polyline fill="none" stroke="black" stroke-width="2" points="678.62,-758 672.62,-758"/>
<text xml:space="preserve" text-anchor="middle" x="641" y="-746.7" font-family="Helvetica,sans-Serif" font-size="14.00">v2&#45;3.4</text>
<text xml:space="preserve" text-anchor="middle" x="641" y="-731.7" font-family="Helvetica,sans-Serif" font-size="14.00">XceedPro</text>
<text xml:space="preserve" text-anchor="middle" x="641" y="-716.7" font-family="Helvetica,sans-Serif" font-size="14.00">dock</text>
<text xml:space="preserve" text-anchor="middle" x="641" y="-701.7" font-family="Helvetica,sans-Serif" font-size="14.00">on ward</text>
</a>
</g>
</g>
<!-- networks&#45;&gt;5 -->
<g id="edge9" class="edge">
<title>networks&#45;&gt;5</title>
<path fill="none" stroke="black" d="M531.03,-843C549.02,-824.79 573.49,-799.99 595,-778.08 596.69,-776.36 598.42,-774.6 600.16,-772.82"/>
<polygon fill="black" stroke="black" points="602.3,-775.64 606.79,-766.05 597.3,-770.74 602.3,-775.64"/>
</g>
<!-- backups -->
<g id="node7" class="node">
<title>backups</title>
<g id="a_node7"><a xlink:href="#backups" xlink:title="v2&#45;8.2\nNo known backups\nthat could have\nprovided evidence">
<polygon fill="blue" stroke="black" stroke-width="2" points="646,-141.5 522,-141.5 522,-73.5 652,-73.5 652,-135.5 646,-141.5"/>
<polyline fill="none" stroke="black" stroke-width="2" points="646,-141.5 646,-135.5"/>
<polyline fill="none" stroke="black" stroke-width="2" points="652,-135.5 646,-135.5"/>
<text xml:space="preserve" text-anchor="middle" x="587" y="-124.2" font-family="Helvetica,sans-Serif" font-size="14.00" fill="white">v2&#45;8.2</text>
<text xml:space="preserve" text-anchor="middle" x="587" y="-109.2" font-family="Helvetica,sans-Serif" font-size="14.00" fill="white">No known backups</text>
<text xml:space="preserve" text-anchor="middle" x="587" y="-94.2" font-family="Helvetica,sans-Serif" font-size="14.00" fill="white">that could have</text>
<text xml:space="preserve" text-anchor="middle" x="587" y="-79.2" font-family="Helvetica,sans-Serif" font-size="14.00" fill="white">provided evidence</text>
</a>
</g>
</g>
<!-- 9 -->
<g id="node8" class="node">
<title>9</title>
<g id="a_node8"><a xlink:href="#9" xlink:title="v2&#45;7.2\nMain hospital\ndatabases">
<polygon fill="blue" stroke="black" stroke-width="2" points="704.12,-323 613.88,-323 613.88,-270 710.12,-270 710.12,-317 704.12,-323"/>
<polyline fill="none" stroke="black" stroke-width="2" points="704.12,-323 704.12,-317"/>
<polyline fill="none" stroke="black" stroke-width="2" points="710.12,-317 704.12,-317"/>
<text xml:space="preserve" text-anchor="middle" x="662" y="-305.7" font-family="Helvetica,sans-Serif" font-size="14.00" fill="white">v2&#45;7.2</text>
<text xml:space="preserve" text-anchor="middle" x="662" y="-290.7" font-family="Helvetica,sans-Serif" font-size="14.00" fill="white">Main hospital</text>
<text xml:space="preserve" text-anchor="middle" x="662" y="-275.7" font-family="Helvetica,sans-Serif" font-size="14.00" fill="white">databases</text>
</a>
</g>
</g>
<!-- 9&#45;&gt;unknowndatabaselogs -->
<g id="edge7" class="edge">
<title>9&#45;&gt;unknowndatabaselogs</title>
<path fill="none" stroke="blue" stroke-width="4" d="M670.47,-269.1C679.76,-240.16 694.86,-193.09 706.32,-157.38"/>
<polygon fill="blue" stroke="blue" stroke-width="4" points="709.56,-158.72 709.29,-148.12 702.9,-156.58 709.56,-158.72"/>
</g>
<!-- 9&#45;&gt;backups -->
<g id="edge10" class="edge">
<title>9&#45;&gt;backups</title>
<path fill="none" stroke="blue" stroke-width="4" d="M651.41,-269.1C639.75,-240.03 620.76,-192.67 606.41,-156.9"/>
<polygon fill="blue" stroke="blue" stroke-width="4" points="609.8,-155.96 602.83,-147.98 603.31,-158.56 609.8,-155.96"/>
</g>
<!-- 3 -->
<g id="node19" class="node">
<title>3</title>
<g id="a_node19"><a xlink:href="#3" xlink:title="v2&#45;8.4\nNurse&#45;written\npaper records\n(never disclosed)">
<polygon fill="blue" stroke="black" stroke-width="2" points="967.38,-141.5 854.62,-141.5 854.62,-73.5 973.38,-73.5 973.38,-135.5 967.38,-141.5"/>
<polyline fill="none" stroke="black" stroke-width="2" points="967.38,-141.5 967.38,-135.5"/>
<polyline fill="none" stroke="black" stroke-width="2" points="973.38,-135.5 967.38,-135.5"/>
<text xml:space="preserve" text-anchor="middle" x="914" y="-124.2" font-family="Helvetica,sans-Serif" font-size="14.00" fill="white">v2&#45;8.4</text>
<text xml:space="preserve" text-anchor="middle" x="914" y="-109.2" font-family="Helvetica,sans-Serif" font-size="14.00" fill="white">Nurse&#45;written</text>
<text xml:space="preserve" text-anchor="middle" x="914" y="-94.2" font-family="Helvetica,sans-Serif" font-size="14.00" fill="white">paper records</text>
<text xml:space="preserve" text-anchor="middle" x="914" y="-79.2" font-family="Helvetica,sans-Serif" font-size="14.00" fill="white">(never disclosed)</text>
</a>
</g>
</g>
<!-- 9&#45;&gt;3 -->
<g id="edge12" class="edge">
<title>9&#45;&gt;3</title>
<path fill="none" stroke="blue" stroke-width="4" stroke-dasharray="1,5" d="M680.18,-269.16C702.14,-239.06 741.65,-190.03 785.75,-159.5 806.24,-145.32 831.25,-134.24 853.72,-126.09"/>
<text xml:space="preserve" text-anchor="middle" x="873.88" y="-229.3" font-family="Helvetica,sans-Serif" font-weight="bold" font-size="16.00" fill="red">Dotted line indicates</text>
<text xml:space="preserve" text-anchor="middle" x="873.88" y="-212.8" font-family="Helvetica,sans-Serif" font-weight="bold" font-size="16.00" fill="red">discrepancies between</text>
<text xml:space="preserve" text-anchor="middle" x="873.88" y="-196.3" font-family="Helvetica,sans-Serif" font-weight="bold" font-size="16.00" fill="red">hospital database</text>
<text xml:space="preserve" text-anchor="middle" x="873.88" y="-179.8" font-family="Helvetica,sans-Serif" font-weight="bold" font-size="16.00" fill="red">and nurse records</text>
</g>
<!-- 8 -->
<g id="node9" class="node">
<title>8</title>
<g id="a_node9"><a xlink:href="#8" xlink:title="v2&#45;6.2\nLots of unknown\ncomplex middleware">
<polygon fill="blue" stroke="black" stroke-width="2" points="757.25,-438.25 622.75,-438.25 622.75,-385.25 763.25,-385.25 763.25,-432.25 757.25,-438.25"/>
<polyline fill="none" stroke="black" stroke-width="2" points="757.25,-438.25 757.25,-432.25"/>
<polyline fill="none" stroke="black" stroke-width="2" points="763.25,-432.25 757.25,-432.25"/>
<text xml:space="preserve" text-anchor="middle" x="693" y="-420.95" font-family="Helvetica,sans-Serif" font-size="14.00" fill="white">v2&#45;6.2</text>
<text xml:space="preserve" text-anchor="middle" x="693" y="-405.95" font-family="Helvetica,sans-Serif" font-size="14.00" fill="white">Lots of unknown</text>
<text xml:space="preserve" text-anchor="middle" x="693" y="-390.95" font-family="Helvetica,sans-Serif" font-size="14.00" fill="white">complex middleware</text>
</a>
</g>
</g>
<!-- 8&#45;&gt;unknowndatabaselogs -->
<g id="edge6" class="edge">
<title>8&#45;&gt;unknowndatabaselogs</title>
<path fill="none" stroke="blue" stroke-width="4" d="M703.71,-384.5C709.45,-369.06 715.95,-349 719,-330.5 728.67,-271.86 727.78,-203.33 725.54,-158.09"/>
<polygon fill="blue" stroke="blue" stroke-width="4" points="729.05,-158.08 724.99,-148.29 722.06,-158.47 729.05,-158.08"/>
</g>
<!-- 8&#45;&gt;9 -->
<g id="edge13" class="edge">
<title>8&#45;&gt;9</title>
<path fill="none" stroke="blue" stroke-width="4" d="M685.81,-384.48C682.09,-370.9 677.47,-354.02 673.29,-338.75"/>
<polygon fill="blue" stroke="blue" stroke-width="4" points="676.77,-338.18 670.75,-329.46 670.01,-340.03 676.77,-338.18"/>
</g>
<!-- 7&#45;&gt;backups -->
<g id="edge11" class="edge">
<title>7&#45;&gt;backups</title>
<path fill="none" stroke="blue" stroke-width="4" d="M601.7,-492.19C598.89,-418.75 592.21,-244.39 588.91,-158.32"/>
<polygon fill="blue" stroke="blue" stroke-width="4" points="592.41,-158.24 588.53,-148.39 585.41,-158.51 592.41,-158.24"/>
</g>
<!-- 7&#45;&gt;8 -->
<g id="edge14" class="edge">
<title>7&#45;&gt;8</title>
<path fill="none" stroke="blue" stroke-width="4" d="M630,-492.02C640.1,-479.32 651.64,-464.79 662.07,-451.67"/>
<polygon fill="blue" stroke="blue" stroke-width="4" points="664.77,-453.89 668.26,-443.89 659.29,-449.54 664.77,-453.89"/>
</g>
<!-- 10 -->
<g id="node15" class="node">
<title>10</title>
<g id="a_node15"><a xlink:href="#10" xlink:title="v2&#45;6.1\nFrequent crashes\ndocumented">
<polygon fill="blue" stroke="black" stroke-width="2" points="527.5,-438.25 412.5,-438.25 412.5,-385.25 533.5,-385.25 533.5,-432.25 527.5,-438.25"/>
<polyline fill="none" stroke="black" stroke-width="2" points="527.5,-438.25 527.5,-432.25"/>
<polyline fill="none" stroke="black" stroke-width="2" points="533.5,-432.25 527.5,-432.25"/>
<text xml:space="preserve" text-anchor="middle" x="473" y="-420.95" font-family="Helvetica,sans-Serif" font-size="14.00" fill="white">v2&#45;6.1</text>
<text xml:space="preserve" text-anchor="middle" x="473" y="-405.95" font-family="Helvetica,sans-Serif" font-size="14.00" fill="white">Frequent crashes</text>
<text xml:space="preserve" text-anchor="middle" x="473" y="-390.95" font-family="Helvetica,sans-Serif" font-size="14.00" fill="white">documented</text>
</a>
</g>
</g>
<!-- 7&#45;&gt;10 -->
<g id="edge26" class="edge">
<title>7&#45;&gt;10</title>
<path fill="none" stroke="blue" stroke-width="4" d="M564,-492.02C548.65,-478.65 530.99,-463.27 515.34,-449.64"/>
<polygon fill="blue" stroke="blue" stroke-width="4" points="517.7,-447.05 507.86,-443.12 513.11,-452.33 517.7,-447.05"/>
</g>
<!-- 11 -->
<g id="node25" class="node">
<title>11</title>
<g id="a_node25"><a xlink:href="#11" xlink:title="v2&#45;6.3\nPolice forensic\ndatabase system">
<polygon fill="blue" stroke="black" stroke-width="2" points="918.38,-438.25 805.62,-438.25 805.62,-385.25 924.38,-385.25 924.38,-432.25 918.38,-438.25"/>
<polyline fill="none" stroke="black" stroke-width="2" points="918.38,-438.25 918.38,-432.25"/>
<polyline fill="none" stroke="black" stroke-width="2" points="924.38,-432.25 918.38,-432.25"/>
<text xml:space="preserve" text-anchor="middle" x="865" y="-420.95" font-family="Helvetica,sans-Serif" font-size="14.00" fill="white">v2&#45;6.3</text>
<text xml:space="preserve" text-anchor="middle" x="865" y="-405.95" font-family="Helvetica,sans-Serif" font-size="14.00" fill="white">Police forensic</text>
<text xml:space="preserve" text-anchor="middle" x="865" y="-390.95" font-family="Helvetica,sans-Serif" font-size="14.00" fill="white">database system</text>
</a>
</g>
</g>
<!-- 7&#45;&gt;11 -->
<g id="edge25" class="edge">
<title>7&#45;&gt;11</title>
<path fill="none" stroke="blue" stroke-width="4" d="M653.52,-504.16C692.31,-487.4 746.47,-463.98 790.28,-445.05"/>
<polygon fill="blue" stroke="blue" stroke-width="4" points="791.65,-448.27 799.44,-441.09 788.87,-441.84 791.65,-448.27"/>
<text xml:space="preserve" text-anchor="middle" x="766.09" y="-457.9" font-family="Helvetica,sans-Serif" font-weight="bold" font-size="18.00" fill="blue"> E</text>
</g>
<!-- 6unknown -->
<g id="node11" class="node">
<title>6unknown</title>
<g id="a_node11"><a xlink:href="#6unknown" xlink:title="v2&#45;2.5\nNo evidence\nexplaining scope\nof Ward PCs">
<polygon fill="yellow" stroke="black" stroke-width="2" points="768.25,-904.31 657.75,-904.31 657.75,-836.31 774.25,-836.31 774.25,-898.31 768.25,-904.31"/>
<polyline fill="none" stroke="black" stroke-width="2" points="768.25,-904.31 768.25,-898.31"/>
<polyline fill="none" stroke="black" stroke-width="2" points="774.25,-898.31 768.25,-898.31"/>
<text xml:space="preserve" text-anchor="middle" x="716" y="-887.01" font-family="Helvetica,sans-Serif" font-size="14.00">v2&#45;2.5</text>
<text xml:space="preserve" text-anchor="middle" x="716" y="-872.01" font-family="Helvetica,sans-Serif" font-size="14.00">No evidence</text>
<text xml:space="preserve" text-anchor="middle" x="716" y="-857.01" font-family="Helvetica,sans-Serif" font-size="14.00">explaining scope</text>
<text xml:space="preserve" text-anchor="middle" x="716" y="-842.01" font-family="Helvetica,sans-Serif" font-size="14.00">of Ward PCs</text>
</a>
</g>
</g>
<!-- 6 -->
<g id="node12" class="node">
<title>6</title>
<g id="a_node12"><a xlink:href="#6" xlink:title="v2&#45;3.5\nWard PCs">
<polygon fill="white" stroke="black" stroke-width="2" points="767.75,-749 696.25,-749 696.25,-711 773.75,-711 773.75,-743 767.75,-749"/>
<polyline fill="none" stroke="black" stroke-width="2" points="767.75,-749 767.75,-743"/>
<polyline fill="none" stroke="black" stroke-width="2" points="773.75,-743 767.75,-743"/>
<text xml:space="preserve" text-anchor="middle" x="735" y="-731.7" font-family="Helvetica,sans-Serif" font-size="14.00">v2&#45;3.5</text>
<text xml:space="preserve" text-anchor="middle" x="735" y="-716.7" font-family="Helvetica,sans-Serif" font-size="14.00">Ward PCs</text>
</a>
</g>
</g>
<!-- 6unknown&#45;&gt;6 -->
<g id="edge8" class="edge">
<title>6unknown&#45;&gt;6</title>
<path fill="none" stroke="black" d="M720.65,-835.48C723.78,-812.67 727.88,-782.85 730.89,-760.92"/>
<polygon fill="black" stroke="black" points="734.34,-761.51 732.23,-751.13 727.41,-760.56 734.34,-761.51"/>
</g>
<!-- 6&#45;&gt;8 -->
<g id="edge27" class="edge">
<title>6&#45;&gt;8</title>
<path fill="none" stroke="black" d="M732.5,-710.16C725.74,-659.25 707,-518.18 697.98,-450.26"/>
<polygon fill="black" stroke="black" points="701.5,-450.19 696.72,-440.73 694.56,-451.11 701.5,-450.19"/>
</g>
<!-- 6&#45;&gt;7 -->
<g id="edge5" class="edge">
<title>6&#45;&gt;7</title>
<path fill="none" stroke="red" stroke-width="2" stroke-dasharray="5,2" d="M730.74,-710.18C724.38,-684.84 710.66,-639.08 688,-605.75 679.39,-593.09 668.33,-581.04 657.05,-570.38"/>
<polygon fill="red" stroke="red" stroke-width="2" points="659.57,-567.94 649.81,-563.81 654.86,-573.12 659.57,-567.94"/>
<text xml:space="preserve" text-anchor="middle" x="686.23" y="-580.65" font-family="Helvetica,sans-Serif" font-weight="bold" font-size="18.00" fill="red">?</text>
</g>
<!-- 5&#45;&gt;7 -->
<g id="edge15" class="edge">
<title>5&#45;&gt;7</title>
<path fill="none" stroke="black" stroke-width="4" d="M634.64,-695.36C628.53,-663.04 619.23,-613.83 612.29,-577.13"/>
<polygon fill="black" stroke="black" stroke-width="4" points="615.8,-576.88 610.51,-567.7 608.92,-578.18 615.8,-576.88"/>
<text xml:space="preserve" text-anchor="middle" x="624.29" y="-580.65" font-family="Helvetica,sans-Serif" font-weight="bold" font-size="18.00" fill="blue"> D</text>
</g>
<!-- 4 -->
<g id="node14" class="node">
<title>4</title>
<g id="a_node14"><a xlink:href="#4" xlink:title="v2&#45;2.4\nXceedPros\non Ward 2">
<polygon fill="white" stroke="black" stroke-width="2" points="634,-896.81 558,-896.81 558,-843.81 640,-843.81 640,-890.81 634,-896.81"/>
<polyline fill="none" stroke="black" stroke-width="2" points="634,-896.81 634,-890.81"/>
<polyline fill="none" stroke="black" stroke-width="2" points="640,-890.81 634,-890.81"/>
<text xml:space="preserve" text-anchor="middle" x="599" y="-879.51" font-family="Helvetica,sans-Serif" font-size="14.00">v2&#45;2.4</text>
<text xml:space="preserve" text-anchor="middle" x="599" y="-864.51" font-family="Helvetica,sans-Serif" font-size="14.00">XceedPros</text>
<text xml:space="preserve" text-anchor="middle" x="599" y="-849.51" font-family="Helvetica,sans-Serif" font-size="14.00">on Ward 2</text>
</a>
</g>
</g>
<!-- 4&#45;&gt;5 -->
<g id="edge16" class="edge">
<title>4&#45;&gt;5</title>
<path fill="none" stroke="black" stroke-width="4" d="M607,-842.97C612.39,-825.21 619.67,-801.23 626.11,-780.03"/>
<polygon fill="black" stroke="black" stroke-width="4" points="629.41,-781.23 628.96,-770.64 622.71,-779.19 629.41,-781.23"/>
<text xml:space="preserve" text-anchor="middle" x="629" y="-797.73" font-family="Helvetica,sans-Serif" font-weight="bold" font-size="18.00" fill="blue"> C</text>
</g>
<!-- 14 -->
<g id="node22" class="node">
<title>14</title>
<g id="a_node22"><a xlink:href="#14" xlink:title="v2&#45;7.1\nNo evidence\nof any testing\never performed">
<polygon fill="yellow" stroke="black" stroke-width="2" points="390.12,-330.5 287.88,-330.5 287.88,-262.5 396.12,-262.5 396.12,-324.5 390.12,-330.5"/>
<polyline fill="none" stroke="black" stroke-width="2" points="390.12,-330.5 390.12,-324.5"/>
<polyline fill="none" stroke="black" stroke-width="2" points="396.12,-324.5 390.12,-324.5"/>
<text xml:space="preserve" text-anchor="middle" x="342" y="-313.2" font-family="Helvetica,sans-Serif" font-size="14.00">v2&#45;7.1</text>
<text xml:space="preserve" text-anchor="middle" x="342" y="-298.2" font-family="Helvetica,sans-Serif" font-size="14.00">No evidence</text>
<text xml:space="preserve" text-anchor="middle" x="342" y="-283.2" font-family="Helvetica,sans-Serif" font-size="14.00">of any testing</text>
<text xml:space="preserve" text-anchor="middle" x="342" y="-268.2" font-family="Helvetica,sans-Serif" font-size="14.00">ever performed</text>
</a>
</g>
</g>
<!-- 10&#45;&gt;14 -->
<g id="edge21" class="edge">
<title>10&#45;&gt;14</title>
<path fill="none" stroke="red" stroke-width="2" stroke-dasharray="5,2" d="M404,-351.1C399.5,-347.21 395.01,-343.33 390.64,-339.55"/>
<polygon fill="red" stroke="red" stroke-width="2" points="393.32,-337.24 383.46,-333.34 388.74,-342.53 393.32,-337.24"/>
<text xml:space="preserve" text-anchor="middle" x="424.86" y="-350.15" font-family="Helvetica,sans-Serif" font-weight="bold" font-size="18.00" fill="red">?</text>
</g>
<!-- manual -->
<g id="node16" class="node">
<title>manual</title>
<g id="a_node16"><a xlink:href="#manual" xlink:title="v2&#45;3.2\nPrecisionWeb\noperators\nmanual">
<ellipse fill="none" stroke="black" cx="324" cy="-730" rx="70.18" ry="48.08"/>
<text xml:space="preserve" text-anchor="middle" x="324" y="-746.7" font-family="Helvetica,sans-Serif" font-size="14.00">v2&#45;3.2</text>
<text xml:space="preserve" text-anchor="middle" x="324" y="-731.7" font-family="Helvetica,sans-Serif" font-size="14.00">PrecisionWeb</text>
<text xml:space="preserve" text-anchor="middle" x="324" y="-716.7" font-family="Helvetica,sans-Serif" font-size="14.00">operators</text>
<text xml:space="preserve" text-anchor="middle" x="324" y="-701.7" font-family="Helvetica,sans-Serif" font-size="14.00">manual</text>
</a>
</g>
</g>
<!-- manual&#45;&gt;7 -->
<g id="edge3" class="edge">
<title>manual&#45;&gt;7</title>
<path fill="none" stroke="black" d="M343.12,-683.37C355.93,-657.58 375.03,-626.44 400,-605.75 440.9,-571.86 498.19,-551.73 541.48,-540.48"/>
<polygon fill="black" stroke="black" points="542.13,-543.92 550.98,-538.1 540.43,-537.13 542.13,-543.92"/>
</g>
<!-- forensicProblems -->
<g id="node17" class="node">
<title>forensicProblems</title>
<g id="a_node17"><a xlink:href="#forensicProblems" xlink:title="v2&#45;5.3\nWritten evidence shows\nforensic methods used\nwere unreliable">
<polygon fill="yellow" stroke="black" stroke-width="2" points="942.25,-561 789.75,-561 789.75,-493 948.25,-493 948.25,-555 942.25,-561"/>
<polyline fill="none" stroke="black" stroke-width="2" points="942.25,-561 942.25,-555"/>
<polyline fill="none" stroke="black" stroke-width="2" points="948.25,-555 942.25,-555"/>
<text xml:space="preserve" text-anchor="middle" x="869" y="-543.7" font-family="Helvetica,sans-Serif" font-size="14.00">v2&#45;5.3</text>
<text xml:space="preserve" text-anchor="middle" x="869" y="-528.7" font-family="Helvetica,sans-Serif" font-size="14.00">Written evidence shows</text>
<text xml:space="preserve" text-anchor="middle" x="869" y="-513.7" font-family="Helvetica,sans-Serif" font-size="14.00">forensic methods used</text>
<text xml:space="preserve" text-anchor="middle" x="869" y="-498.7" font-family="Helvetica,sans-Serif" font-size="14.00">were unreliable</text>
</a>
</g>
</g>
<!-- forensicProblems&#45;&gt;11 -->
<g id="edge2" class="edge">
<title>forensicProblems&#45;&gt;11</title>
<path fill="none" stroke="red" stroke-width="2" stroke-dasharray="5,2" d="M867.8,-492.02C867.36,-479.45 866.85,-465.09 866.39,-452.08"/>
<polygon fill="red" stroke="red" stroke-width="2" points="869.89,-452.04 866.04,-442.17 862.89,-452.29 869.89,-452.04"/>
<text xml:space="preserve" text-anchor="middle" x="872.74" y="-457.9" font-family="Helvetica,sans-Serif" font-weight="bold" font-size="18.00" fill="red">?</text>
</g>
<!-- Abbott_engineer -->
<g id="node18" class="node">
<title>Abbott_engineer</title>
<g id="a_node18"><a xlink:href="#Abbott_engineer" xlink:title="v2&#45;2.2\nUnsupervised\nAbbott\nengineer">
<polygon fill="blue" stroke="black" stroke-width="2" points="390.25,-904.31 297.75,-904.31 297.75,-836.31 396.25,-836.31 396.25,-898.31 390.25,-904.31"/>
<polyline fill="none" stroke="black" stroke-width="2" points="390.25,-904.31 390.25,-898.31"/>
<polyline fill="none" stroke="black" stroke-width="2" points="396.25,-898.31 390.25,-898.31"/>
<text xml:space="preserve" text-anchor="middle" x="347" y="-887.01" font-family="Helvetica,sans-Serif" font-size="14.00" fill="white">v2&#45;2.2</text>
<text xml:space="preserve" text-anchor="middle" x="347" y="-872.01" font-family="Helvetica,sans-Serif" font-size="14.00" fill="white">Unsupervised</text>
<text xml:space="preserve" text-anchor="middle" x="347" y="-857.01" font-family="Helvetica,sans-Serif" font-size="14.00" fill="white">Abbott</text>
<text xml:space="preserve" text-anchor="middle" x="347" y="-842.01" font-family="Helvetica,sans-Serif" font-size="14.00" fill="white">engineer</text>
</a>
</g>
</g>
<!-- Abbott_engineer&#45;&gt;unknownEdits -->
<g id="edge1" class="edge">
<title>Abbott_engineer&#45;&gt;unknownEdits</title>
<path fill="none" stroke="blue" stroke-width="4" d="M384.18,-835.48C406.68,-815 435.39,-788.88 458.46,-767.88"/>
<polygon fill="blue" stroke="blue" stroke-width="4" points="460.78,-770.51 465.82,-761.19 456.06,-765.34 460.78,-770.51"/>
</g>
<!-- 2 -->
<g id="node20" class="node">
<title>2</title>
<g id="a_node20"><a xlink:href="#2" xlink:title="v2&#45;1.2\nPatients">
<polygon fill="white" stroke="black" stroke-width="2" points="625.38,-1029.62 566.62,-1029.62 566.62,-991.62 631.38,-991.62 631.38,-1023.62 625.38,-1029.62"/>
<polyline fill="none" stroke="black" stroke-width="2" points="625.38,-1029.62 625.38,-1023.62"/>
<polyline fill="none" stroke="black" stroke-width="2" points="631.38,-1023.62 625.38,-1023.62"/>
<text xml:space="preserve" text-anchor="middle" x="599" y="-1012.32" font-family="Helvetica,sans-Serif" font-size="14.00">v2&#45;1.2</text>
<text xml:space="preserve" text-anchor="middle" x="599" y="-997.32" font-family="Helvetica,sans-Serif" font-size="14.00">Patients</text>
</a>
</g>
</g>
<!-- 2&#45;&gt;4 -->
<g id="edge29" class="edge">
<title>2&#45;&gt;4</title>
<path fill="none" stroke="black" stroke-width="4" d="M599,-990.68C599,-970.89 599,-939.21 599,-913.46"/>
<polygon fill="black" stroke="black" stroke-width="4" points="602.5,-913.63 599,-903.63 595.5,-913.63 602.5,-913.63"/>
<text xml:space="preserve" text-anchor="middle" x="608" y="-927.44" font-family="Helvetica,sans-Serif" font-weight="bold" font-size="18.00" fill="blue"> B</text>
</g>
<!-- 15 -->
<g id="node21" class="node">
<title>15</title>
<g id="a_node21"><a xlink:href="#15" xlink:title="v2&#45;8.1\nNo evidence of\nerror logs\nor audits">
<polygon fill="yellow" stroke="black" stroke-width="2" points="389,-141.5 289,-141.5 289,-73.5 395,-73.5 395,-135.5 389,-141.5"/>
<polyline fill="none" stroke="black" stroke-width="2" points="389,-141.5 389,-135.5"/>
<polyline fill="none" stroke="black" stroke-width="2" points="395,-135.5 389,-135.5"/>
<text xml:space="preserve" text-anchor="middle" x="342" y="-124.2" font-family="Helvetica,sans-Serif" font-size="14.00">v2&#45;8.1</text>
<text xml:space="preserve" text-anchor="middle" x="342" y="-109.2" font-family="Helvetica,sans-Serif" font-size="14.00">No evidence of</text>
<text xml:space="preserve" text-anchor="middle" x="342" y="-94.2" font-family="Helvetica,sans-Serif" font-size="14.00">error logs</text>
<text xml:space="preserve" text-anchor="middle" x="342" y="-79.2" font-family="Helvetica,sans-Serif" font-size="14.00">or audits</text>
</a>
</g>
</g>
<!-- 14&#45;&gt;15 -->
<g id="edge20" class="edge">
<title>14&#45;&gt;15</title>
<path fill="none" stroke="red" stroke-width="2" stroke-dasharray="5,2" d="M342,-261.64C342,-231.94 342,-188.47 342,-155.43"/>
<polygon fill="red" stroke="red" stroke-width="2" points="345.5,-155.45 342,-145.45 338.5,-155.45 345.5,-155.45"/>
<text xml:space="preserve" text-anchor="middle" x="347.62" y="-194.28" font-family="Helvetica,sans-Serif" font-weight="bold" font-size="18.00" fill="red">?</text>
</g>
<!-- 13 -->
<g id="node23" class="node">
<title>13</title>
<g id="a_node23"><a xlink:href="#13" xlink:title="v2&#45;5.1\nHospital\ncomputer\noperators">
<polygon fill="white" stroke="black" stroke-width="2" points="384.5,-561 317.5,-561 317.5,-493 390.5,-493 390.5,-555 384.5,-561"/>
<polyline fill="none" stroke="black" stroke-width="2" points="384.5,-561 384.5,-555"/>
<polyline fill="none" stroke="black" stroke-width="2" points="390.5,-555 384.5,-555"/>
<text xml:space="preserve" text-anchor="middle" x="354" y="-543.7" font-family="Helvetica,sans-Serif" font-size="14.00">v2&#45;5.1</text>
<text xml:space="preserve" text-anchor="middle" x="354" y="-528.7" font-family="Helvetica,sans-Serif" font-size="14.00">Hospital</text>
<text xml:space="preserve" text-anchor="middle" x="354" y="-513.7" font-family="Helvetica,sans-Serif" font-size="14.00">computer</text>
<text xml:space="preserve" text-anchor="middle" x="354" y="-498.7" font-family="Helvetica,sans-Serif" font-size="14.00">operators</text>
</a>
</g>
</g>
<!-- 13&#45;&gt;10 -->
<g id="edge22" class="edge">
<title>13&#45;&gt;10</title>
<path fill="none" stroke="red" stroke-width="2" stroke-dasharray="5,2" d="M389.7,-492.02C391.42,-490.38 393.18,-488.72 394.95,-487.03"/>
<polygon fill="red" stroke="red" stroke-width="2" points="396.98,-489.93 401.81,-480.5 392.15,-484.86 396.98,-489.93"/>
<text xml:space="preserve" text-anchor="middle" x="429.78" y="-457.9" font-family="Helvetica,sans-Serif" font-weight="bold" font-size="18.00" fill="red">?</text>
</g>
<!-- 13&#45;&gt;14 -->
<g id="edge23" class="edge">
<title>13&#45;&gt;14</title>
<path fill="none" stroke="red" stroke-width="2" stroke-dasharray="5,2" d="M352.23,-492.28C350.17,-453.13 346.77,-388.31 344.46,-344.29"/>
<polygon fill="red" stroke="red" stroke-width="2" points="347.96,-344.18 343.94,-334.38 340.97,-344.55 347.96,-344.18"/>
<text xml:space="preserve" text-anchor="middle" x="355.01" y="-404.02" font-family="Helvetica,sans-Serif" font-weight="bold" font-size="18.00" fill="red">?</text>
</g>
<!-- 12 -->
<g id="node24" class="node">
<title>12</title>
<g id="a_node24"><a xlink:href="#12" xlink:title="v2&#45;7.3\nMain police evidence">
<polygon fill="blue" stroke="black" stroke-width="2" points="930.38,-315.5 793.62,-315.5 793.62,-277.5 936.38,-277.5 936.38,-309.5 930.38,-315.5"/>
<polyline fill="none" stroke="black" stroke-width="2" points="930.38,-315.5 930.38,-309.5"/>
<polyline fill="none" stroke="black" stroke-width="2" points="936.38,-309.5 930.38,-309.5"/>
<text xml:space="preserve" text-anchor="middle" x="865" y="-298.2" font-family="Helvetica,sans-Serif" font-size="14.00" fill="white">v2&#45;7.3</text>
<text xml:space="preserve" text-anchor="middle" x="865" y="-283.2" font-family="Helvetica,sans-Serif" font-size="14.00" fill="white">Main police evidence</text>
</a>
</g>
</g>
<!-- 11&#45;&gt;12 -->
<g id="edge24" class="edge">
<title>11&#45;&gt;12</title>
<path fill="none" stroke="blue" stroke-width="4" d="M865,-384.48C865,-368.88 865,-348.92 865,-332.05"/>
<polygon fill="blue" stroke="blue" stroke-width="4" points="868.5,-332.26 865,-322.26 861.5,-332.26 868.5,-332.26"/>
<text xml:space="preserve" text-anchor="middle" x="875.88" y="-350.15" font-family="Helvetica,sans-Serif" font-weight="bold" font-size="18.00" fill="blue"> &#160;F</text>
</g>
<!-- 1 -->
<g id="node26" class="node">
<title>1</title>
<g id="a_node26"><a xlink:href="#1" xlink:title="v2&#45;1.3\nDefendant\nnurses\non Ward 2">
<ellipse fill="none" stroke="black" cx="802" cy="-1010.62" rx="55.33" ry="48.08"/>
<text xml:space="preserve" text-anchor="middle" x="802" y="-1027.32" font-family="Helvetica,sans-Serif" font-size="14.00">v2&#45;1.3</text>
<text xml:space="preserve" text-anchor="middle" x="802" y="-1012.32" font-family="Helvetica,sans-Serif" font-size="14.00">Defendant</text>
<text xml:space="preserve" text-anchor="middle" x="802" y="-997.32" font-family="Helvetica,sans-Serif" font-size="14.00">nurses</text>
<text xml:space="preserve" text-anchor="middle" x="802" y="-982.32" font-family="Helvetica,sans-Serif" font-size="14.00">on Ward 2</text>
</a>
</g>
</g>
<!-- 1&#45;&gt;6 -->
<g id="edge28" class="edge">
<title>1&#45;&gt;6</title>
<path fill="none" stroke="black" d="M801.17,-962.29C799.53,-926.22 795.02,-875.63 783,-832.83 775.74,-806.99 762.46,-779.57 751.7,-759.7"/>
<polygon fill="black" stroke="black" points="754.84,-758.15 746.93,-751.1 748.72,-761.54 754.84,-758.15"/>
</g>
<!-- 1&#45;&gt;4 -->
<g id="edge30" class="edge">
<title>1&#45;&gt;4</title>
<path fill="none" stroke="black" stroke-width="4" d="M756.54,-982.69C725.6,-963.88 684.06,-937.69 649,-912.31 646.84,-910.75 644.66,-909.12 642.47,-907.46"/>
<polygon fill="black" stroke="black" stroke-width="4" points="644.81,-904.86 634.78,-901.44 640.5,-910.37 644.81,-904.86"/>
<text xml:space="preserve" text-anchor="middle" x="702.79" y="-927.44" font-family="Helvetica,sans-Serif" font-weight="bold" font-size="18.00" fill="blue"> A</text>
</g>
<!-- 1&#45;&gt;3 -->
<g id="edge31" class="edge">
<title>1&#45;&gt;3</title>
<path fill="none" stroke="black" d="M853.73,-993.21C905.03,-973.32 976,-934.4 976,-871.31 976,-871.31 976,-871.31 976,-295.5 976,-234.74 987.27,-214.76 962,-159.5 960.81,-156.89 959.42,-154.32 957.9,-151.82"/>
<polygon fill="black" stroke="black" points="960.85,-149.94 952.26,-143.74 955.11,-153.94 960.85,-149.94"/>
</g>
</g>
</svg>
